<svg width="143" height="34" viewBox="0 0 143 34" fill="none" xmlns="http://www.w3.org/2000/svg">
<path d="M24.4414 15.8857L25.0503 15.138C25.9636 15.9854 26.877 16.3842 28.1455 16.3842C29.414 16.3842 30.1244 15.7362 30.1244 14.8888C30.1244 14.0414 29.6677 13.5928 27.7903 13.194C25.7099 12.7453 24.7966 12.0973 24.7966 10.6518C24.7966 9.25603 26.0651 8.20923 27.7396 8.20923C29.414 8.20923 29.9721 8.55816 30.8855 9.30587L30.2766 10.0536C29.4647 9.40557 28.6021 9.10648 27.6888 9.10648C26.7755 9.10648 25.7607 9.7545 25.7607 10.5521C25.7607 11.3995 26.2173 11.8979 28.1962 12.2967C30.1751 12.7453 31.1392 13.4432 31.1392 14.7891C31.1392 16.3344 29.8707 17.3313 28.0947 17.3313C26.3188 17.3313 25.507 16.8827 24.4414 15.9356V15.8857Z" fill="#222222"/>
<path d="M34.9453 8.30896H38.2942C40.3238 8.30896 41.643 9.35576 41.643 11.1004C41.643 13.0445 40.0193 13.9916 38.0912 13.9916H35.9093V17.132H34.8945V8.30896H34.9453ZM38.1927 13.1442C39.6642 13.1442 40.679 12.3466 40.679 11.2001C40.679 9.90408 39.7149 9.25606 38.2434 9.25606H35.9601V13.1442H38.1927Z" fill="#222222"/>
<path d="M49.4557 13.9417L47.426 9.45545L45.3964 13.9417L44.9905 14.839L43.9249 17.1818H42.8594L46.9694 8.30896H47.9334L52.0435 17.1818H50.9271L49.8616 14.839L49.4557 13.9417Z" fill="#222222"/>
<path d="M54.0742 12.7952C54.0742 10.253 55.9516 8.20923 58.6408 8.20923C61.3301 8.20923 61.2286 8.75755 62.142 9.60496L61.4316 10.3527C60.6705 9.65481 59.8079 9.15633 58.5901 9.15633C56.6112 9.15633 55.089 10.7515 55.089 12.7952C55.089 14.8888 56.6112 16.4839 58.5901 16.4839C60.569 16.4839 60.6197 16.0353 61.4823 15.1879L62.142 15.8359C61.2286 16.783 60.1631 17.3812 58.5394 17.3812C55.9516 17.3812 54.0234 15.3873 54.0234 12.845L54.0742 12.7952Z" fill="#222222"/>
<path d="M65.6426 8.30888H72.1374V9.20613H66.6574V12.197H71.5793V13.0942H66.6574V16.1848H72.1881V17.082H65.6426V8.25903V8.30888Z" fill="#222222"/>
<path d="M75.334 15.8857L75.9429 15.138C76.8562 15.9854 77.7695 16.3842 79.0381 16.3842C80.3066 16.3842 81.0169 15.7362 81.0169 14.8888C81.0169 14.0414 80.5603 13.5928 78.6829 13.194C76.6025 12.7453 75.6892 12.0973 75.6892 10.6518C75.6892 9.25603 76.9577 8.20923 78.6321 8.20923C80.3066 8.20923 80.8647 8.55816 81.7781 9.30587L81.1692 10.0536C80.3573 9.40557 79.4947 9.10648 78.5814 9.10648C77.6681 9.10648 76.6532 9.7545 76.6532 10.5521C76.6532 11.3995 77.1099 11.8979 79.0888 12.2967C81.0677 12.7453 82.0318 13.4432 82.0318 14.7891C82.0318 16.3344 80.7632 17.3313 78.9873 17.3313C77.2114 17.3313 76.3995 16.8827 75.334 15.9356V15.8857Z" fill="#222222"/>
<path d="M87.564 9.25602H84.5703V8.35876H91.6233V9.25602H88.6296V17.1818H87.6148V9.25602H87.564Z" fill="#222222"/>
<path d="M99.3346 13.9417L97.3049 9.45545L95.2753 13.9417L94.8694 14.839L93.8038 17.1818H92.7383L96.8483 8.30896H97.8124L101.922 17.1818H100.806L99.7405 14.839L99.3346 13.9417Z" fill="#222222"/>
<path d="M105.982 9.25602H102.988V8.35876H110.041V9.25602H107.048V17.1818H106.033V9.25602H105.982Z" fill="#222222"/>
<path d="M113.746 8.30896H114.761V17.132H113.746V8.30896Z" fill="#222222"/>
<path d="M118.008 12.7952C118.008 10.3527 119.885 8.20923 122.625 8.20923C125.365 8.20923 127.192 10.3028 127.192 12.7454C127.192 15.1879 125.314 17.3313 122.574 17.3313C119.834 17.3313 118.008 15.2377 118.008 12.7952ZM126.126 12.7952C126.126 10.7515 124.655 9.10648 122.574 9.10648C120.494 9.10648 119.073 10.7016 119.073 12.7454C119.073 14.7891 120.545 16.4341 122.625 16.4341C124.706 16.4341 126.126 14.8389 126.126 12.7952Z" fill="#222222"/>
<path d="M130.439 8.30896H131.404L137.086 15.3873V8.30896H138.051V17.132H137.239L131.454 9.90408V17.132H130.49V8.30896H130.439Z" fill="#222222"/>
<path d="M16.9826 17.132L14.9023 22.5653L15.9678 25.2571H13.8875L12.3652 29.1452H20.5345C20.9912 29.1452 21.3463 28.7963 21.3463 28.3476C21.3463 27.899 21.3463 28.1483 21.2956 28.0486L16.9826 17.132Z" fill="#F4B223"/>
<path d="M19.4187 4.12175C19.9769 2.67617 19.6217 1.23059 19.6217 1.23059C19.6217 1.23059 18.3532 2.02815 17.795 3.52358C17.795 3.52358 17.2876 3.32419 16.7802 4.17159C16.7802 4.22144 16.6787 4.32114 16.6787 4.37098C16.5772 4.62022 16.425 4.91931 16.3235 5.26824C16.3235 5.36793 16.2728 5.51748 16.2221 5.66702C16.2221 5.66702 16.5265 5.41778 16.8817 5.21839C16.9832 5.21839 17.0847 5.1187 17.1861 5.06885C17.1861 5.06885 17.2369 5.06885 17.2876 5.06885C17.4906 5.06885 17.8458 5.06885 17.5413 5.9661L13.0254 17.5806L12.6702 16.6833L12.5687 16.4839L14.6491 11.0505L16.1206 7.31199C16.1206 7.31199 15.4609 7.66092 15.055 8.70771L14.4461 10.3527L13.2791 7.36183C12.9239 6.46458 12.0613 5.86641 11.0972 5.86641C10.1332 5.86641 9.27058 6.46458 8.91539 7.36183L0.847617 27.9987C0.847617 28.0984 0.796875 28.1981 0.796875 28.2978C0.796875 28.7464 1.15206 29.0953 1.60873 29.0953H7.29169L5.97243 32.485H9.21984L10.5391 29.0953L12.0613 25.2072L14.091 20.0231L16.1713 14.5897L17.1354 12.0475C17.4906 11.0505 17.3384 10.4025 17.2876 10.3028L15.9176 13.8919L13.8372 19.3252L11.5539 25.2072H10.6913L13.3806 18.2286L15.461 12.7952L17.998 6.21534C18.4039 5.16854 18.7084 5.36793 18.8606 5.51748C18.8606 5.51748 18.8606 5.56732 18.9113 5.61717C18.9621 5.71687 19.0128 5.81656 19.0635 5.91626C19.2158 6.31504 19.2665 6.71382 19.2665 6.71382C19.3172 6.61412 19.368 6.46458 19.4695 6.36488C19.6217 6.01595 19.7739 5.71687 19.8247 5.46763C19.8247 5.36793 19.8247 5.31809 19.8754 5.21839C20.0784 4.27129 19.5709 4.0719 19.5709 4.0719L19.4187 4.12175ZM8.61095 25.2072H6.02317L10.945 12.546L12.2135 15.7861L8.56021 25.2072H8.61095Z" fill="#F4B223"/>
<path d="M26.3203 21.6681H27.9948V29.1452H26.3203V21.6681Z" fill="#F4B223"/>
<path d="M33.1699 21.6681H34.6921L38.244 26.2541V21.6681H39.9184V29.1452H38.4977L34.7936 24.4097V29.1452H33.1191V21.6681H33.1699Z" fill="#F4B223"/>
<path d="M44.3847 21.6681H46.2114L48.1903 26.9519L50.1692 21.6681H51.9958L48.9006 29.1951H47.4292L44.334 21.6681H44.3847Z" fill="#F4B223"/>
<path d="M56.4102 21.6681H62.1439V23.1136H58.0846V24.6091H61.6872V26.0546H58.0846V27.5999H62.1946V29.0455H56.4102V21.5684V21.6681Z" fill="#F4B223"/>
<path d="M66.457 28.0485L67.4211 26.902C68.0807 27.4504 68.8418 27.7993 69.7044 27.7993C70.567 27.7993 70.8207 27.5501 70.8207 27.1014C70.8207 26.6528 70.567 26.4534 69.2985 26.1543C67.7763 25.7555 66.7615 25.3568 66.7615 23.8613C66.7615 22.4656 67.8778 21.5684 69.4 21.5684C70.9222 21.5684 71.4296 21.9173 72.2415 22.5155L71.3789 23.7616C70.7193 23.313 70.0596 23.0139 69.4 23.0139C68.7404 23.0139 68.4359 23.313 68.4359 23.662C68.4359 24.1604 68.7404 24.3598 70.0596 24.6589C71.5818 25.0577 72.4952 25.606 72.4952 26.902C72.4952 28.3975 71.3281 29.2449 69.7044 29.2449C68.0807 29.2449 67.3704 28.8461 66.457 28.0485Z" fill="#F4B223"/>
<path d="M78.7872 23.2133H76.4531V21.7179H82.745V23.2133H80.4109V29.195H78.7365V23.2133H78.7872Z" fill="#F4B223"/>
<path d="M87.3105 21.6681H89.1372L91.1161 24.8085L93.095 21.6681H94.9217V29.1452H93.2472V24.2602L91.1161 27.4504L88.985 24.31V29.1452H87.3613V21.6681H87.3105Z" fill="#F4B223"/>
<path d="M100.047 21.6681H105.781V23.1136H101.721V24.6091H105.324V26.0546H101.721V27.5999H105.831V29.0455H100.047V21.5684V21.6681Z" fill="#F4B223"/>
<path d="M110.551 21.6681H112.073L115.625 26.2541V21.6681H117.299V29.1452H115.879L112.174 24.4097V29.1452H110.5V21.6681H110.551Z" fill="#F4B223"/>
<path d="M124.199 23.2133H121.865V21.7179H128.157V23.2133H125.823V29.195H124.149V23.2133H124.199Z" fill="#F4B223"/>
<path d="M132.064 28.0485L133.029 26.902C133.688 27.4504 134.449 27.7993 135.312 27.7993C136.174 27.7993 136.428 27.5501 136.428 27.1014C136.428 26.6528 136.174 26.4534 134.906 26.1543C133.384 25.7555 132.369 25.3568 132.369 23.8613C132.369 22.4656 133.485 21.5684 135.007 21.5684C136.53 21.5684 137.037 21.9173 137.849 22.5155L136.986 23.7616C136.327 23.313 135.667 23.0139 135.007 23.0139C134.348 23.0139 134.043 23.313 134.043 23.662C134.043 24.1604 134.348 24.3598 135.667 24.6589C137.189 25.0577 138.103 25.606 138.103 26.902C138.103 28.3975 136.936 29.2449 135.312 29.2449C133.688 29.2449 132.978 28.8461 132.064 28.0485Z" fill="#F4B223"/>
</svg>
